<svg width="20" height="20" viewBox="0 0 20 20" fill="none" xmlns="http://www.w3.org/2000/svg">
<g clip-path="url(#clip0_222_6622)">
<path d="M9.96191 1.87622C12.2002 1.87622 12.4795 1.88446 13.3577 1.92565C14.235 1.96684 14.8323 2.10442 15.3579 2.30872C15.9016 2.51797 16.3596 2.80136 16.8177 3.25857C17.2366 3.67039 17.5607 4.16854 17.7675 4.71836C17.971 5.24313 18.1094 5.84122 18.1506 6.71857C18.1893 7.59675 18.2 7.87603 18.2 10.1143C18.2 12.3526 18.1918 12.6319 18.1506 13.5101C18.1094 14.3874 17.971 14.9847 17.7675 15.5103C17.5613 16.0604 17.2371 16.5587 16.8177 16.9701C16.4057 17.3888 15.9076 17.7129 15.3579 17.9199C14.8331 18.1234 14.235 18.2618 13.3577 18.303C12.4795 18.3417 12.2002 18.3524 9.96191 18.3524C7.72362 18.3524 7.44435 18.3442 6.56617 18.303C5.68881 18.2618 5.09155 18.1234 4.56596 17.9199C4.01592 17.7135 3.51768 17.3893 3.10617 16.9701C2.68718 16.5583 2.36304 16.0601 2.15632 15.5103C1.95201 14.9855 1.81443 14.3874 1.77324 13.5101C1.73453 12.6319 1.72382 12.3526 1.72382 10.1143C1.72382 7.87603 1.73205 7.59675 1.77324 6.71857C1.81443 5.84039 1.95201 5.24395 2.15632 4.71836C2.36246 4.16821 2.68669 3.66992 3.10617 3.25857C3.5178 2.83944 4.01601 2.51527 4.56596 2.30872C5.09155 2.10442 5.68799 1.96684 6.56617 1.92565C7.44435 1.88693 7.72362 1.87622 9.96191 1.87622ZM9.96191 5.99527C8.86947 5.99527 7.82178 6.42924 7.0493 7.20171C6.27683 7.97418 5.84286 9.02188 5.84286 10.1143C5.84286 11.2068 6.27683 12.2545 7.0493 13.0269C7.82178 13.7994 8.86947 14.2334 9.96191 14.2334C11.0543 14.2334 12.102 13.7994 12.8745 13.0269C13.647 12.2545 14.081 11.2068 14.081 10.1143C14.081 9.02188 13.647 7.97418 12.8745 7.20171C12.102 6.42924 11.0543 5.99527 9.96191 5.99527ZM15.3167 5.78932C15.3167 5.51621 15.2082 5.25428 15.0151 5.06116C14.8219 4.86805 14.56 4.75955 14.2869 4.75955C14.0138 4.75955 13.7519 4.86805 13.5588 5.06116C13.3656 5.25428 13.2571 5.51621 13.2571 5.78932C13.2571 6.06243 13.3656 6.32435 13.5588 6.51747C13.7519 6.71059 14.0138 6.81908 14.2869 6.81908C14.56 6.81908 14.8219 6.71059 15.0151 6.51747C15.2082 6.32435 15.3167 6.06243 15.3167 5.78932ZM9.96191 7.64289C10.6174 7.64289 11.246 7.90327 11.7095 8.36675C12.173 8.83023 12.4333 9.45885 12.4333 10.1143C12.4333 10.7698 12.173 11.3984 11.7095 11.8619C11.246 12.3254 10.6174 12.5857 9.96191 12.5857C9.30645 12.5857 8.67783 12.3254 8.21435 11.8619C7.75086 11.3984 7.49048 10.7698 7.49048 10.1143C7.49048 9.45885 7.75086 8.83023 8.21435 8.36675C8.67783 7.90327 9.30645 7.64289 9.96191 7.64289Z" fill="white"/>
</g>
<defs>
<clipPath id="clip0_222_6622">
<rect width="19.7714" height="19.7714" fill="white" transform="translate(0.0762024 0.228577)"/>
</clipPath>
</defs>
</svg>
