<svg width="22" height="24" viewBox="0 0 22 24" fill="none" xmlns="http://www.w3.org/2000/svg">
<g clip-path="url(#clip0_222_6643)">
<path d="M3.21405 12.9243H8.36852V11.0759H3.21405V2.61583C3.21406 2.53553 3.23353 2.45662 3.27052 2.38688C3.30752 2.31713 3.36076 2.25897 3.42502 2.21811C3.48928 2.17725 3.56232 2.1551 3.63695 2.15386C3.71158 2.15262 3.78523 2.17233 3.85063 2.21103L19.7109 11.5953C19.7783 11.6352 19.8344 11.6938 19.8736 11.765C19.9127 11.8362 19.9333 11.9174 19.9333 12.0001C19.9333 12.0828 19.9127 12.164 19.8736 12.2352C19.8344 12.3064 19.7783 12.365 19.7109 12.4049L3.85063 21.7892C3.78523 21.828 3.71158 21.8477 3.63695 21.8464C3.56232 21.8452 3.48928 21.823 3.42502 21.7822C3.36076 21.7413 3.30752 21.6831 3.27052 21.6134C3.23353 21.5437 3.21406 21.4647 3.21405 21.3844V12.9243Z" fill="white"/>
</g>
<defs>
<clipPath id="clip0_222_6643">
<rect width="20.6179" height="22.1808" fill="white" transform="translate(0.63681 0.909729)"/>
</clipPath>
</defs>
</svg>
