<svg width="20" height="20" viewBox="0 0 20 20" fill="none" xmlns="http://www.w3.org/2000/svg">
<g clip-path="url(#clip0_222_6625)">
<path d="M18.4096 4.88802C17.7807 5.16621 17.1137 5.34892 16.4308 5.43008C17.1506 4.99959 17.6894 4.32207 17.9467 3.52379C17.2711 3.92581 16.5305 4.20755 15.7586 4.35995C15.2401 3.80518 14.5529 3.43726 13.8037 3.31337C13.0545 3.18949 12.2854 3.31659 11.6159 3.67492C10.9464 4.03324 10.4141 4.60272 10.1016 5.29481C9.78916 5.9869 9.71411 6.76282 9.88814 7.50196C8.51824 7.4333 7.17808 7.07731 5.95469 6.4571C4.7313 5.83688 3.65201 4.96632 2.78691 3.90192C2.48069 4.42788 2.31977 5.02578 2.32063 5.63439C2.32063 6.82891 2.9286 7.88421 3.85292 8.50207C3.30591 8.48485 2.77095 8.33713 2.29262 8.07122V8.11405C2.29279 8.90961 2.56808 9.68062 3.07182 10.2964C3.57556 10.9121 4.27675 11.3347 5.0565 11.4925C4.54872 11.6301 4.01628 11.6504 3.4995 11.5518C3.71935 12.2366 4.14785 12.8355 4.72499 13.2646C5.30214 13.6937 5.99905 13.9316 6.71813 13.945C6.00345 14.5063 5.18516 14.9212 4.31003 15.166C3.4349 15.4108 2.5201 15.4808 1.61792 15.3718C3.19279 16.3846 5.0261 16.9223 6.89854 16.9206C13.2361 16.9206 16.7019 11.6704 16.7019 7.11724C16.7019 6.96896 16.6978 6.81902 16.6912 6.67239C17.3658 6.18483 17.948 5.58086 18.4105 4.88884L18.4096 4.88802Z" fill="white"/>
</g>
<defs>
<clipPath id="clip0_222_6625">
<rect width="19.7714" height="19.7714" fill="white" transform="translate(0.152374 0.228577)"/>
</clipPath>
</defs>
</svg>
