<svg width="20" height="20" viewBox="0 0 20 20" fill="none" xmlns="http://www.w3.org/2000/svg">
<g clip-path="url(#clip0_222_6628)">
<path d="M17.9759 5.58168C18.3524 7.04971 18.3524 10.1143 18.3524 10.1143C18.3524 10.1143 18.3524 13.1789 17.9759 14.6469C17.7667 15.4583 17.1546 16.0968 16.3794 16.3126C14.9715 16.7048 10.1143 16.7048 10.1143 16.7048C10.1143 16.7048 5.25958 16.7048 3.84921 16.3126C3.07071 16.0935 2.45945 15.4559 2.25267 14.6469C1.87619 13.1789 1.87619 10.1143 1.87619 10.1143C1.87619 10.1143 1.87619 7.04971 2.25267 5.58168C2.46192 4.77023 3.07401 4.13177 3.84921 3.91594C5.25958 3.5238 10.1143 3.5238 10.1143 3.5238C10.1143 3.5238 14.9715 3.5238 16.3794 3.91594C17.1579 4.13507 17.7691 4.7727 17.9759 5.58168ZM8.46667 12.9976L13.4095 10.1143L8.46667 7.23095V12.9976Z" fill="white"/>
</g>
<defs>
<clipPath id="clip0_222_6628">
<rect width="19.7714" height="19.7714" fill="white" transform="translate(0.228577 0.228577)"/>
</clipPath>
</defs>
</svg>
