<svg width="24" height="24" viewBox="0 0 24 24" fill="none" xmlns="http://www.w3.org/2000/svg">
<circle cx="12" cy="11.9387" r="11.1829" fill="white"/>
<path d="M11.7798 7.37748C11.8812 7.37892 11.9813 7.40031 12.0744 7.44044C12.1675 7.48058 12.2518 7.53866 12.3224 7.61138C12.3931 7.6841 12.4487 7.77002 12.4861 7.86424C12.5236 7.95847 12.5421 8.05914 12.5406 8.16052L12.4507 14.4396C12.4282 15.3544 12.0457 16.2234 11.3862 16.8578C10.7267 17.4921 9.84347 17.8405 8.92849 17.8274C8.01351 17.8142 7.1407 17.4405 6.49972 16.7874C5.85874 16.1343 5.50139 15.2547 5.50533 14.3396L5.56248 10.3708C5.56595 10.1661 5.65061 9.97115 5.79783 9.82885C5.94504 9.68655 6.14276 9.60856 6.34748 9.61203C6.5522 9.61551 6.74715 9.70016 6.88945 9.84738C7.03175 9.99459 7.10975 10.1923 7.10627 10.397L7.04667 14.3633C7.0393 14.8754 7.23565 15.3694 7.59253 15.7367C7.94942 16.104 8.43759 16.3145 8.94967 16.3219C9.46176 16.3293 9.95579 16.1329 10.3231 15.776C10.6904 15.4191 10.9009 14.931 10.9083 14.4189L10.9987 8.13931C11.0013 7.93473 11.0851 7.73957 11.2316 7.59672C11.378 7.45387 11.5752 7.37501 11.7798 7.37748Z" fill="#2F5931"/>
<path d="M14.449 16.8918C13.5283 16.8906 12.6456 16.5243 11.9945 15.8733C11.3434 15.2222 10.9772 14.3395 10.976 13.4187L10.9785 9.45204C10.9731 9.34742 10.9891 9.24279 11.0254 9.14454C11.0618 9.04629 11.1177 8.95647 11.1899 8.88055C11.2621 8.80462 11.349 8.74419 11.4453 8.70293C11.5416 8.66167 11.6453 8.64044 11.75 8.64054C11.8548 8.64064 11.9584 8.66207 12.0546 8.70352C12.1509 8.74496 12.2376 8.80557 12.3097 8.88163C12.3817 8.95769 12.4375 9.04762 12.4737 9.14594C12.5098 9.24426 12.5256 9.34891 12.52 9.45353L12.5175 13.4202C12.5209 13.9297 12.7257 14.4172 13.0872 14.7763C13.4487 15.1353 13.9375 15.3369 14.447 15.3369C14.9566 15.3369 15.4454 15.1353 15.8069 14.7763C16.1684 14.4172 16.3731 13.9297 16.3766 13.4202L16.3781 7.1385C16.3781 6.93376 16.4594 6.73739 16.6042 6.59261C16.7489 6.44783 16.9453 6.3665 17.1501 6.3665C17.3548 6.3665 17.5512 6.44784 17.6959 6.59261C17.8407 6.73739 17.9221 6.93376 17.9221 7.1385L17.9221 13.4187C17.9211 14.3395 17.5549 15.2224 16.9038 15.8735C16.2526 16.5246 15.3698 16.8908 14.449 16.8918Z" fill="#2F5931"/>
</svg>
